<svg class="u-svg-content" viewBox="0 0 48 48" id="svg-9169" xmlns="http://www.w3.org/2000/svg"><g><path d="M0,28.375h12.67c-0.062,3.31-1.338,6.313-3.403,8.6c-0.945,0.892-1.982,1.408-2.879,1.706   c-1.1,0.328-2.26,0.396-2.883,0.408H0v2.286h8.75v-0.003c7.205-0.032,13.043-5.816,13.177-12.997H22v-22H0V28.375z" fill="currentColor"></path><path d="M26,6.375v22h12.74c0,2.991-1,5.742-2.674,7.956c-0.839,1.089-1.828,1.792-2.761,2.233   c-0.008,0.004-0.016,0.008-0.023,0.012c-0.139,0.065-0.274,0.122-0.409,0.176c-1.514,0.557-3.915,0.587-3.915,0.587H26v2.286h8.75   c7.317,0,13.25-5.933,13.25-13.25v-22H26z" fill="currentColor"></path>
</g></svg>